# xmcd
# 
# Track frame offsets:
#     150
#     15378
#     32074
#     52759
# 
# Disc length: 943
# 
# Revision: 0
# Processed by: cddbd v1.5.2PL0 Copyright (c) Steve Scherf et al.
# Submitted via: fre:ac v1.0.17
# 
DISCID=2003ad04
DTITLE=Idlewild - You Held The World In Your Arms
DYEAR=2002
DGENRE=
TTITLE0=You Held The World In Your Arms
TTITLE1=No Generation
TTITLE2=A Distant History
TTITLE3=I Was Made to Think It
EXTD=
EXTT0=
EXTT1=
EXTT2=
EXTT3=
PLAYORDER=
